<svg width="30" height="10" viewBox="0 0 30 10" fill="none" xmlns="http://www.w3.org/2000/svg">
<g id="mir">
<path id="Vector" d="M16.6811 1.84383L14.8643 5.75836H14.6805V1.00037H12.0851V9.00245H14.2371C14.8211 9.00245 15.3402 8.66723 15.5889 8.14817L17.4165 4.24445H17.6004V9.00245H20.1958V1.00037H18.0113C17.449 1.00037 16.9191 1.33559 16.6811 1.84383Z" fill="#319B42"/>
<path id="Vector_2" d="M6.97243 2.04929L5.90182 5.75836H5.71798L4.63656 2.04929C4.45271 1.4221 3.87956 1.00037 3.2307 1.00037H0.667725V9.00245H3.26315V4.24445H3.44699L4.93935 9.00245H6.66963L8.162 4.24445H8.34584V9.00245H10.9413V1.00037H8.37829C7.72943 1.00037 7.14546 1.4221 6.97243 2.04929Z" fill="#319B42"/>
<g id="Vector_3">
<path d="M21.3243 4.56745V9.00245H23.9206V6.40635H26.7115C27.9231 6.40635 28.9508 5.63834 29.3294 4.56745H21.3243Z" fill="#319B42"/>
<path d="M26.6357 1.00037H20.859C21.216 2.90417 22.8819 4.24549 24.8832 4.24549H29.3725C29.405 4.07241 29.4266 3.87771 29.4266 3.683C29.4266 2.13616 28.1826 1.00037 26.6357 1.00037Z" fill="url(#paint0_linear_7_2283)"/>
</g>
</g>
<defs>
<linearGradient id="paint0_linear_7_2283" x1="20.859" y1="2.62293" x2="29.4266" y2="2.62293" gradientUnits="userSpaceOnUse">
<stop stop-color="#00A3E1"/>
<stop offset="0.3042" stop-color="#009ADD"/>
<stop offset="0.7987" stop-color="#0082D4"/>
<stop offset="1" stop-color="#0076CF"/>
</linearGradient>
</defs>
</svg>
